<svg width="29" height="29" viewBox="0 0 29 29" fill="none" xmlns="http://www.w3.org/2000/svg">
<path d="M21.8389 20.2784C23.4688 18.244 24.4441 15.654 24.4441 12.8374C24.4441 9.70136 23.2117 6.69164 21.0146 4.47089C18.8171 2.24978 15.8344 1 12.722 1C6.23808 1 1 6.3099 1 12.8374C1 19.3649 6.23808 24.6748 12.722 24.6748C15.5691 24.6748 18.1759 23.6511 20.2045 21.95C20.1584 22.1352 20.1345 22.3267 20.1345 22.5205C20.1345 23.052 20.3139 23.5659 20.6406 23.9795L20.6582 24.0017L20.6769 24.0229L20.775 24.1335L23.4224 27.1677L23.443 27.1913L23.465 27.2136C24.5024 28.2621 26.1889 28.2621 27.2263 27.2136C28.2579 26.1709 28.2579 24.4848 27.2263 23.4422L26.9328 23.1455H26.8133L23.9291 20.8174C23.352 20.273 22.5587 20.0933 21.8389 20.2784Z" stroke="white" stroke-opacity="0.5" stroke-width="2"/>
</svg>
